<?xml version="1.0" encoding="utf-8"?>
<!-- Generator: Adobe Illustrator 22.1.0, SVG Export Plug-In . SVG Version: 6.00 Build 0)  -->
<svg version="1.1" id="Camada_1" xmlns="http://www.w3.org/2000/svg" xmlns:xlink="http://www.w3.org/1999/xlink" x="0px" y="0px"
	 viewBox="0 0 24 24" style="enable-background:new 0 0 24 24;" xml:space="preserve">
<style type="text/css">
	.st0{fill:none;}
	.st1{fill:#7B1E4B;enable-background:new    ;}
</style>
<g>
	<g>
		<defs>
			<rect id="SVGID_1_" x="-0.1" y="1" width="23.8" height="21.7"/>
		</defs>
		<clipPath id="SVGID_2_">
			<use xlink:href="#SVGID_1_"  style="overflow:visible;"/>
		</clipPath>
	</g>
	<rect x="-0.1" y="1" class="st0" width="23.8" height="21.7"/>
	<rect x="-0.1" y="1" class="st0" width="23.7" height="21.8"/>
	<path class="st1" d="M8.5,10.2c0.1,0,0.2,0,0.3,0c0.8-0.1,1.5-0.7,2-1.5c0.4-0.8,0.6-1.9,0.5-2.9C11,3.8,9.6,2.2,8,2.2
		c-0.1,0-0.2,0-0.3,0c-0.9,0-1.6,0.5-2,1.3C5.2,4.4,5,5.4,5.2,6.5C5.5,8.6,6.9,10.2,8.5,10.2L8.5,10.2z M6.4,3.9
		c0.3-0.6,0.8-1,1.4-1.1c0.1,0,0.1,0,0.2,0c1.1,0,2.3,1.3,2.5,3c0.1,0.9,0,1.8-0.4,2.5c-0.3,0.6-0.9,1-1.4,1.1c-0.1,0-0.2,0-0.2,0
		C7.3,9.4,6.2,8,6,6.4C5.8,5.5,6,4.6,6.4,3.9L6.4,3.9z"/>
	<rect x="-0.1" y="1" class="st0" width="23.8" height="21.7"/>
	<rect x="-0.1" y="1" class="st0" width="23.7" height="21.8"/>
	<path class="st1" d="M2.1,7.5c-0.2,0-0.3,0-0.5,0.1C1,7.7,0.4,8.2,0.2,8.9c-0.3,0.7-0.3,1.5-0.1,2.3c0.4,1.5,1.5,2.5,2.7,2.5
		c0.2,0,0.3,0,0.5-0.1c1.3-0.3,2-2,1.6-3.7C4.4,8.5,3.3,7.5,2.1,7.5L2.1,7.5z M3,13c-0.1,0-0.2,0-0.3,0c-0.8,0-1.6-0.8-1.9-2
		c-0.1-0.6-0.1-1.3,0.1-1.8s0.5-0.8,0.9-0.9c0.1,0,0.2,0,0.3,0c0.8,0,1.6,0.8,1.9,2C4.3,11.5,3.9,12.7,3,13L3,13z"/>
	<rect x="-0.1" y="1" class="st0" width="23.8" height="21.7"/>
	<rect x="-0.1" y="1" class="st0" width="23.7" height="21.8"/>
	<path class="st1" d="M16,2c-0.1,0-0.2,0-0.3,0c-1.6,0-3,1.6-3.3,3.6c-0.1,1.1,0,2.1,0.5,2.9c0.5,0.9,1.2,1.4,2,1.5
		c0.1,0,0.2,0,0.3,0c1.6,0,3-1.6,3.3-3.6c0.1-1.1,0-2.1-0.5-3C17.5,2.7,16.8,2.2,16,2L16,2z M17.7,6.4c-0.2,1.7-1.3,3-2.5,3
		c-0.1,0-0.1,0-0.2,0c-0.6-0.1-1.1-0.5-1.4-1.1c-0.4-0.7-0.5-1.6-0.4-2.5c0.2-1.6,1.3-3,2.5-3c0.1,0,0.1,0,0.2,0
		c0.6,0.1,1.1,0.5,1.4,1.1C17.6,4.6,17.8,5.5,17.7,6.4L17.7,6.4z"/>
	<rect x="-0.1" y="1" class="st0" width="23.8" height="21.7"/>
	<rect x="-0.1" y="1" class="st0" width="23.7" height="21.8"/>
	<path class="st1" d="M22,7.6c-0.2,0-0.3-0.1-0.5-0.1c-1.2,0-2.3,1-2.7,2.5c-0.4,1.7,0.2,3.4,1.6,3.7c0.2,0,0.3,0.1,0.5,0.1l0,0
		c1.2,0,2.3-1,2.7-2.5C24,9.5,23.3,7.9,22,7.6L22,7.6z M22.8,11c-0.3,1.2-1.1,2-1.9,2l0,0c-0.1,0-0.2,0-0.3,0
		c-0.9-0.2-1.3-1.4-1-2.7c0.3-1.2,1.1-2,1.9-2c0.1,0,0.2,0,0.3,0C22.7,8.5,23.1,9.7,22.8,11L22.8,11z"/>
	<rect x="-0.1" y="1" class="st0" width="23.8" height="21.7"/>
	<path class="st1" d="M14.7,11.8c-1.1,0-2.1,0.5-2.9,1.5c-0.8-1-1.8-1.5-2.9-1.5c-1.7,0-3.2,1.2-3.6,3c-0.2,0.9-0.3,2.5,0.9,4.3
		c1.1,1.7,2.9,3.3,5.5,4.7c0.1,0,0.1,0,0.2,0c0.1,0,0.1,0,0.2,0c2.6-1.4,4.4-3,5.5-4.7c1.1-1.8,1.1-3.3,0.9-4.3
		C17.9,13,16.4,11.8,14.7,11.8L14.7,11.8z M11.8,22.9c-6.3-3.5-6-7-5.7-7.9c0.4-1.4,1.5-2.4,2.9-2.4c1,0,1.9,0.6,2.5,1.6
		c0.1,0.1,0.2,0.2,0.3,0.2s0.3-0.1,0.3-0.2c0.6-1.1,1.5-1.6,2.5-1.6c1.3,0,2.5,1,2.9,2.4C17.8,15.9,18.1,19.4,11.8,22.9L11.8,22.9z"
		/>
</g>
</svg>
