<?xml version="1.0" encoding="utf-8"?>
<!-- Generator: Adobe Illustrator 22.1.0, SVG Export Plug-In . SVG Version: 6.00 Build 0)  -->
<svg version="1.1" id="Camada_1" xmlns="http://www.w3.org/2000/svg" xmlns:xlink="http://www.w3.org/1999/xlink" x="0px" y="0px"
	 viewBox="0 0 24 24" style="enable-background:new 0 0 24 24;" xml:space="preserve">
<style type="text/css">
	.st0{clip-path:url(#SVGID_3_);}
	.st1{opacity:0.1;clip-path:url(#SVGID_4_);fill:#FFFFFF;}
</style>
<g>
	<defs>
		<rect id="SVGID_1_" x="0.2" y="0.6" width="23.8" height="21.7"/>
	</defs>
	<defs>
		<rect id="SVGID_2_" x="0.2" y="0.6" width="23.7" height="21.8"/>
	</defs>
	<clipPath id="SVGID_3_">
		<use xlink:href="#SVGID_1_"  style="overflow:visible;"/>
	</clipPath>
	<clipPath id="SVGID_4_" class="st0">
		<use xlink:href="#SVGID_2_"  style="overflow:visible;"/>
	</clipPath>
	<path class="st1" d="M8.8,9.8c0.1,0,0.2,0,0.3,0c0.8-0.1,1.5-0.7,2-1.5c0.4-0.8,0.6-1.9,0.5-2.9c-0.3-2-1.7-3.6-3.3-3.6
		c-0.1,0-0.2,0-0.3,0C7.1,1.8,6.4,2.3,6,3.1C5.5,4,5.3,5,5.5,6.1C5.8,8.2,7.2,9.8,8.8,9.8L8.8,9.8z M6.7,3.5c0.3-0.6,0.8-1,1.4-1.1
		c0.1,0,0.1,0,0.2,0c1.1,0,2.3,1.3,2.5,3c0.1,0.9,0,1.8-0.4,2.5C10.1,8.5,9.5,8.9,9,9C8.9,9,8.8,9,8.8,9C7.6,9,6.5,7.6,6.3,6
		C6.1,5.1,6.3,4.2,6.7,3.5L6.7,3.5z M6.7,3.5"/>
	<path class="st1" d="M2.4,7.1c-0.2,0-0.3,0-0.5,0.1C1.3,7.3,0.7,7.8,0.5,8.5C0.2,9.2,0.2,10,0.4,10.8c0.4,1.5,1.5,2.5,2.7,2.5
		c0.2,0,0.3,0,0.5-0.1c1.3-0.3,2-2,1.6-3.7C4.7,8.1,3.6,7.1,2.4,7.1L2.4,7.1z M3.3,12.6c-0.1,0-0.2,0-0.3,0c-0.8,0-1.6-0.8-1.9-2
		C1,10,1,9.3,1.2,8.8C1.4,8.3,1.7,8,2.1,7.9c0.1,0,0.2,0,0.3,0c0.8,0,1.6,0.8,1.9,2C4.6,11.1,4.2,12.3,3.3,12.6L3.3,12.6z M3.3,12.6
		"/>
	<path class="st1" d="M16.3,1.6c-0.1,0-0.2,0-0.3,0c-1.6,0-3,1.6-3.3,3.6c-0.1,1.1,0,2.1,0.5,2.9c0.5,0.9,1.2,1.4,2,1.5
		c0.1,0,0.2,0,0.3,0c1.6,0,3-1.6,3.3-3.6c0.1-1.1,0-2.1-0.5-3C17.8,2.3,17.1,1.8,16.3,1.6L16.3,1.6z M18,6c-0.2,1.7-1.3,3-2.5,3
		c-0.1,0-0.1,0-0.2,0c-0.6-0.1-1.1-0.5-1.4-1.1c-0.4-0.7-0.5-1.6-0.4-2.5c0.2-1.6,1.3-3,2.5-3c0.1,0,0.1,0,0.2,0
		c0.6,0.1,1.1,0.5,1.4,1.1C17.9,4.2,18.1,5.1,18,6L18,6z M18,6"/>
	<path class="st1" d="M22.3,7.2c-0.2,0-0.3-0.1-0.5-0.1c-1.2,0-2.3,1-2.7,2.5c-0.4,1.7,0.2,3.4,1.6,3.7c0.2,0,0.3,0.1,0.5,0.1h0
		c1.2,0,2.3-1,2.7-2.5C24.3,9.1,23.6,7.5,22.3,7.2L22.3,7.2z M23.1,10.6c-0.3,1.2-1.1,2-1.9,2h0c-0.1,0-0.2,0-0.3,0
		c-0.9-0.2-1.3-1.4-1-2.7c0.3-1.2,1.1-2,1.9-2c0.1,0,0.2,0,0.3,0C23,8.1,23.4,9.3,23.1,10.6L23.1,10.6z M23.1,10.6"/>
	<path class="st1" d="M15,11.4c-1.1,0-2.1,0.5-2.9,1.5c-0.8-1-1.8-1.5-2.9-1.5c-1.7,0-3.2,1.2-3.6,3c-0.2,0.9-0.3,2.5,0.9,4.3
		c1.1,1.7,2.9,3.3,5.5,4.7c0.1,0,0.1,0,0.2,0c0.1,0,0.1,0,0.2,0c2.6-1.4,4.4-3,5.5-4.7c1.1-1.8,1.1-3.3,0.9-4.3
		C18.2,12.6,16.7,11.4,15,11.4L15,11.4z M12.1,22.5c-6.3-3.5-6-7-5.7-7.9c0.4-1.4,1.5-2.4,2.9-2.4c1,0,1.9,0.6,2.5,1.6
		c0.1,0.1,0.2,0.2,0.3,0.2c0.1,0,0.3-0.1,0.3-0.2c0.6-1.1,1.5-1.6,2.5-1.6c1.3,0,2.5,1,2.9,2.4C18.1,15.5,18.4,19,12.1,22.5
		L12.1,22.5z M12.1,22.5"/>
</g>
</svg>
